<svg xmlns="http://www.w3.org/2000/svg" width="25.312" height="31.876" viewBox="0 0 25.312 31.876">
  <metadata><?xpacket begin="﻿" id="W5M0MpCehiHzreSzNTczkc9d"?>
<x:xmpmeta xmlns:x="adobe:ns:meta/" x:xmptk="Adobe XMP Core 5.6-c138 79.159824, 2016/09/14-01:09:01        ">
   <rdf:RDF xmlns:rdf="http://www.w3.org/1999/02/22-rdf-syntax-ns#">
      <rdf:Description rdf:about=""/>
   </rdf:RDF>
</x:xmpmeta>
                                                                                                    
                                                                                                    
                                                                                                    
                                                                                                    
                                                                                                    
                                                                                                    
                                                                                                    
                                                                                                    
                                                                                                    
                                                                                                    
                                                                                                    
                                                                                                    
                                                                                                    
                                                                                                    
                                                                                                    
                                                                                                    
                                                                                                    
                                                                                                    
                                                                                                    
                                                                                                    
                           
<?xpacket end="w"?></metadata>
<defs>
    <style>
      .cls-1 {
        fill: #fff;
        fill-rule: evenodd;
      }
    </style>
  </defs>
  <path id="Forma_1" data-name="Forma 1" class="cls-1" d="M155.164,100.846l-1.428-17.934a2.247,2.247,0,0,0-2.233-2.061h-2.821V80.725a6.182,6.182,0,0,0-12.364,0v0.127H133.5a2.246,2.246,0,0,0-2.233,2.058l-1.428,17.938a5.2,5.2,0,0,0,5.192,5.586h14.944A5.2,5.2,0,0,0,155.164,100.846ZM138.191,80.725a4.309,4.309,0,0,1,8.618,0v0.127h-8.618V80.725ZM152.418,103.5a3.306,3.306,0,0,1-2.446,1.064H135.028a3.327,3.327,0,0,1-3.325-3.573l1.429-17.939a0.367,0.367,0,0,1,.365-0.337h2.821v2.3a0.937,0.937,0,0,0,1.873,0v-2.3h8.618v2.3a0.937,0.937,0,0,0,1.873,0v-2.3H151.5a0.368,0.368,0,0,1,.365.339l1.428,17.933A3.282,3.282,0,0,1,152.418,103.5Z" transform="translate(-129.844 -74.563)"/>
</svg>
