<svg xmlns="http://www.w3.org/2000/svg" width="25.594" height="22.594" viewBox="0 0 25.594 22.594">
  <metadata><?xpacket begin="﻿" id="W5M0MpCehiHzreSzNTczkc9d"?>
<x:xmpmeta xmlns:x="adobe:ns:meta/" x:xmptk="Adobe XMP Core 5.6-c138 79.159824, 2016/09/14-01:09:01        ">
   <rdf:RDF xmlns:rdf="http://www.w3.org/1999/02/22-rdf-syntax-ns#">
      <rdf:Description rdf:about=""/>
   </rdf:RDF>
</x:xmpmeta>
                                                                                                    
                                                                                                    
                                                                                                    
                                                                                                    
                                                                                                    
                                                                                                    
                                                                                                    
                                                                                                    
                                                                                                    
                                                                                                    
                                                                                                    
                                                                                                    
                                                                                                    
                                                                                                    
                                                                                                    
                                                                                                    
                                                                                                    
                                                                                                    
                                                                                                    
                                                                                                    
                           
<?xpacket end="w"?></metadata>
<defs>
    <style>
      .cls-1 {
        fill: #fff;
        fill-rule: evenodd;
      }
    </style>
  </defs>
  <path id="wishlist" class="cls-1" d="M204.637,80.834h0Zm0,0,0,0a7.232,7.232,0,0,0-10.218,0h0l-0.462.462-0.462-.462a7.228,7.228,0,0,0-10.22,10.223l9.951,9.954a1.034,1.034,0,0,0,1.463,0l9.951-9.954A7.238,7.238,0,0,0,204.641,80.838Zm-1.467,8.757-9.22,9.223-9.22-9.223a5.16,5.16,0,0,1,7.3-7.3l1.193,1.194a1.034,1.034,0,0,0,1.463,0l1.193-1.194h0l0,0a5.161,5.161,0,0,1,7.291,0l0,0A5.165,5.165,0,0,1,203.174,89.595Z" transform="translate(-181.156 -78.719)"/>
</svg>
