<?xml version="1.0" encoding="utf-8"?>
<!-- Generator: Adobe Illustrator 18.0.0, SVG Export Plug-In . SVG Version: 6.00 Build 0)  -->
<!DOCTYPE svg PUBLIC "-//W3C//DTD SVG 1.1//EN" "http://www.w3.org/Graphics/SVG/1.1/DTD/svg11.dtd">
<svg version="1.1" id="Layer_1" xmlns="http://www.w3.org/2000/svg" xmlns:xlink="http://www.w3.org/1999/xlink" x="0px" y="0px"
	 viewBox="0 0 257 257" enable-background="new 0 0 257 257" xml:space="preserve">
<g>
	<path d="M0,117c0-5.3,0-10.7,0-16c0.3-1.4,0.8-2.8,0.9-4.3C5.8,52.4,37.5,15.4,80.5,4.1C87.2,2.3,94.2,1.3,101,0c5.3,0,10.7,0,16,0
		c2.4,0.4,4.8,0.9,7.3,1.2c81.8,12,120.8,107.1,71.1,173.2c-0.9,1.2-1.7,2.4-3.1,4.5c1.6,1.2,3.2,2.1,4.5,3.4
		c17.8,17.7,35.6,35.5,53.3,53.3c2.5,2.6,4.6,5.6,6.9,8.4c0,1.7,0,3.3,0,5c-2.7,2.7-5.3,5.3-8,8c-1.7,0-3.3,0-5,0
		c-2.8-2.3-5.8-4.4-8.4-6.9c-18-17.8-35.8-35.8-53.7-53.6c-1.3-1.3-2.6-2.5-3.9-3.7c-1.7,1.3-3.1,2.3-4.4,3.2
		c-59.9,44.2-145.1,17.1-168.1-53.7C2.9,134.1,1.8,125.4,0,117z M20.9,108.6c-0.1,48.6,39.3,88.2,87.7,88.3
		c48.4,0.1,88.2-39.5,88.3-87.9c0.1-48.5-39.3-88.1-87.9-88.2C60.4,20.7,21,60,20.9,108.6z"/>
</g>
</svg>
