<svg xmlns="http://www.w3.org/2000/svg" width="25.562" height="25.562" viewBox="0 0 25.562 25.562">
  <metadata><?xpacket begin="﻿" id="W5M0MpCehiHzreSzNTczkc9d"?>
<x:xmpmeta xmlns:x="adobe:ns:meta/" x:xmptk="Adobe XMP Core 5.6-c138 79.159824, 2016/09/14-01:09:01        ">
   <rdf:RDF xmlns:rdf="http://www.w3.org/1999/02/22-rdf-syntax-ns#">
      <rdf:Description rdf:about=""/>
   </rdf:RDF>
</x:xmpmeta>
                                                                                                    
                                                                                                    
                                                                                                    
                                                                                                    
                                                                                                    
                                                                                                    
                                                                                                    
                                                                                                    
                                                                                                    
                                                                                                    
                                                                                                    
                                                                                                    
                                                                                                    
                                                                                                    
                                                                                                    
                                                                                                    
                                                                                                    
                                                                                                    
                                                                                                    
                                                                                                    
                           
<?xpacket end="w"?></metadata>
<defs>
    <style>
      .cls-1 {
        fill: #fff;
        fill-rule: evenodd;
      }
    </style>
  </defs>
  <path id="user" class="cls-1" d="M245.5,93.138c-7.164,0-12.775,3.316-12.775,7.548v1.3a1.035,1.035,0,0,0,2.069,0v-1.3c0-2.971,4.9-5.482,10.706-5.482s10.706,2.511,10.706,5.482v1.3a1.035,1.035,0,0,0,2.069,0v-1.3C258.275,96.454,252.663,93.138,245.5,93.138Zm6.241-10.364a6.251,6.251,0,1,0-6.2,7.163,6.338,6.338,0,0,0,.93-0.069A6.253,6.253,0,0,0,251.741,82.774Zm-5.571,5.05a4.178,4.178,0,1,1,3.525-4.746A4.159,4.159,0,0,1,246.17,87.824Z" transform="translate(-232.719 -77.469)"/>
</svg>
